<svg id="visual" viewBox="0 0 960 540" width="960" height="540" xmlns="http://www.w3.org/2000/svg" xmlns:xlink="http://www.w3.org/1999/xlink" version="1.1"><rect x="0" y="0" width="960" height="540" fill="#001f60"></rect><path d="M0 348L22.8 357.2C45.7 366.3 91.3 384.7 137 386.5C182.7 388.3 228.3 373.7 274 359.7C319.7 345.7 365.3 332.3 411.2 333.2C457 334 503 349 548.8 357C594.7 365 640.3 366 686 368.8C731.7 371.7 777.3 376.3 823 378.3C868.7 380.3 914.3 379.7 937.2 379.3L960 379L960 541L937.2 541C914.3 541 868.7 541 823 541C777.3 541 731.7 541 686 541C640.3 541 594.7 541 548.8 541C503 541 457 541 411.2 541C365.3 541 319.7 541 274 541C228.3 541 182.7 541 137 541C91.3 541 45.7 541 22.8 541L0 541Z" fill="#b17600"></path><path d="M0 379L22.8 375.3C45.7 371.7 91.3 364.3 137 365.3C182.7 366.3 228.3 375.7 274 384.7C319.7 393.7 365.3 402.3 411.2 401.7C457 401 503 391 548.8 385.3C594.7 379.7 640.3 378.3 686 373.8C731.7 369.3 777.3 361.7 823 358.2C868.7 354.7 914.3 355.3 937.2 355.7L960 356L960 541L937.2 541C914.3 541 868.7 541 823 541C777.3 541 731.7 541 686 541C640.3 541 594.7 541 548.8 541C503 541 457 541 411.2 541C365.3 541 319.7 541 274 541C228.3 541 182.7 541 137 541C91.3 541 45.7 541 22.8 541L0 541Z" fill="#bf8209"></path><path d="M0 400L22.8 402.5C45.7 405 91.3 410 137 415.7C182.7 421.3 228.3 427.7 274 434.2C319.7 440.7 365.3 447.3 411.2 443C457 438.7 503 423.3 548.8 414.3C594.7 405.3 640.3 402.7 686 404.8C731.7 407 777.3 414 823 417.7C868.7 421.3 914.3 421.7 937.2 421.8L960 422L960 541L937.2 541C914.3 541 868.7 541 823 541C777.3 541 731.7 541 686 541C640.3 541 594.7 541 548.8 541C503 541 457 541 411.2 541C365.3 541 319.7 541 274 541C228.3 541 182.7 541 137 541C91.3 541 45.7 541 22.8 541L0 541Z" fill="#ce8f12"></path><path d="M0 459L22.8 456.3C45.7 453.7 91.3 448.3 137 448C182.7 447.7 228.3 452.3 274 453.8C319.7 455.3 365.3 453.7 411.2 453.5C457 453.3 503 454.7 548.8 460.5C594.7 466.3 640.3 476.7 686 479.8C731.7 483 777.3 479 823 477.8C868.7 476.7 914.3 478.3 937.2 479.2L960 480L960 541L937.2 541C914.3 541 868.7 541 823 541C777.3 541 731.7 541 686 541C640.3 541 594.7 541 548.8 541C503 541 457 541 411.2 541C365.3 541 319.7 541 274 541C228.3 541 182.7 541 137 541C91.3 541 45.7 541 22.8 541L0 541Z" fill="#dc9c1a"></path><path d="M0 475L22.8 476.5C45.7 478 91.3 481 137 484.7C182.7 488.3 228.3 492.7 274 496C319.7 499.3 365.3 501.7 411.2 501.5C457 501.3 503 498.7 548.8 500C594.7 501.3 640.3 506.7 686 509.3C731.7 512 777.3 512 823 507.5C868.7 503 914.3 494 937.2 489.5L960 485L960 541L937.2 541C914.3 541 868.7 541 823 541C777.3 541 731.7 541 686 541C640.3 541 594.7 541 548.8 541C503 541 457 541 411.2 541C365.3 541 319.7 541 274 541C228.3 541 182.7 541 137 541C91.3 541 45.7 541 22.8 541L0 541Z" fill="#eba921"></path></svg>